<svg width="16" height="16" viewBox="0 0 16 16" fill="none" xmlns="http://www.w3.org/2000/svg">
<path d="M8 10C9.10457 10 10 9.10457 10 8C10 6.89543 9.10457 6 8 6C6.89543 6 6 6.89543 6 8C6 9.10457 6.89543 10 8 10Z" fill="#292C33"/>
<path d="M15.2516 9.02707C13.9902 10.6188 11.257 13.5 8.00002 13.5C4.743 13.5 2.00984 10.6188 0.748446 9.02707C0.266142 8.41847 0.266143 7.58153 0.748447 6.97293C2.00984 5.38123 4.743 2.5 8.00002 2.5C11.257 2.5 13.9902 5.38123 15.2516 6.97293C15.7339 7.58153 15.7339 8.41847 15.2516 9.02707ZM11.5 8C11.5 6.067 9.93302 4.5 8.00002 4.5C6.06703 4.5 4.50002 6.067 4.50002 8C4.50002 9.933 6.06703 11.5 8.00002 11.5C9.93302 11.5 11.5 9.933 11.5 8Z" fill="#292C33"/>
</svg>
