<svg width="28" height="28" viewBox="0 0 28 28" fill="none" xmlns="http://www.w3.org/2000/svg">
<path d="M7.25 9.5H8.75H20.75" stroke="#292C33" stroke-width="1.5" stroke-linecap="round" stroke-linejoin="round"/>
<path d="M11 9.5V8C11 7.60218 11.158 7.22064 11.4393 6.93934C11.7206 6.65804 12.1022 6.5 12.5 6.5H15.5C15.8978 6.5 16.2794 6.65804 16.5607 6.93934C16.842 7.22064 17 7.60218 17 8V9.5M19.25 9.5V20C19.25 20.3978 19.092 20.7794 18.8107 21.0607C18.5294 21.342 18.1478 21.5 17.75 21.5H10.25C9.85218 21.5 9.47064 21.342 9.18934 21.0607C8.90804 20.7794 8.75 20.3978 8.75 20V9.5H19.25Z" stroke="#292C33" stroke-width="1.5" stroke-linecap="round" stroke-linejoin="round"/>
<path d="M12.5 13.25V17.75" stroke="#292C33" stroke-width="1.5" stroke-linecap="round" stroke-linejoin="round"/>
<path d="M15.5 13.25V17.75" stroke="#292C33" stroke-width="1.5" stroke-linecap="round" stroke-linejoin="round"/>
</svg>
