<svg width="28" height="28" viewBox="0 0 28 28" fill="none" xmlns="http://www.w3.org/2000/svg">
    <path d="M13.5716 4.71186C13.7659 4.38895 14.2341 4.38895 14.4284 4.71186L17.1824 9.28801C17.2522 9.40402 17.3661 9.48675 17.498 9.5173L22.7012 10.7224C23.0683 10.8074 23.213 11.2526 22.9659 11.5372L19.4648 15.5705C19.376 15.6728 19.3325 15.8066 19.3442 15.9415L19.806 21.2625C19.8386 21.6379 19.4599 21.9131 19.1128 21.7661L14.195 19.6826C14.0704 19.6298 13.9296 19.6298 13.805 19.6826L8.88716 21.7661C8.54014 21.9131 8.1614 21.6379 8.19398 21.2625L8.65577 15.9415C8.66748 15.8066 8.62398 15.6728 8.53522 15.5705L5.03407 11.5372C4.78702 11.2526 4.93168 10.8074 5.29884 10.7224L10.502 9.5173C10.6339 9.48675 10.7478 9.40402 10.8176 9.28801L13.5716 4.71186Z" fill="#6E66FA" stroke="#6E66FA" stroke-width="2"/>
</svg>
