<svg width="16" height="16" viewBox="0 0 16 16" fill="none" xmlns="http://www.w3.org/2000/svg">
<circle cx="8" cy="8" r="7" stroke="#C8C9CC" stroke-width="1.6"/>
<path fill-rule="evenodd" clip-rule="evenodd" d="M10.8284 5.1712C10.4379 4.78068 9.80474 4.78068 9.41421 5.1712L8 6.58541L6.58579 5.1712C6.19526 4.78068 5.5621 4.78068 5.17157 5.1712C4.78105 5.56172 4.78105 6.19489 5.17157 6.58541L6.58579 7.99963L5.17157 9.41384C4.78105 9.80437 4.78105 10.4375 5.17157 10.8281C5.5621 11.2186 6.19526 11.2186 6.58579 10.8281L8 9.41384L9.41421 10.8281C9.80474 11.2186 10.4379 11.2186 10.8284 10.8281C11.219 10.4375 11.219 9.80437 10.8284 9.41384L9.41421 7.99963L10.8284 6.58541C11.219 6.19489 11.219 5.56172 10.8284 5.1712Z" fill="#C8C9CC"/>
</svg>
