<svg width="16" height="16" viewBox="0 0 16 16" fill="none" xmlns="http://www.w3.org/2000/svg">
    <path fill-rule="evenodd" clip-rule="evenodd"
        d="M12.2426 12.2426C9.8995 14.5858 6.1005 14.5858 3.75736 12.2426C1.41421 9.89949 1.41421 6.1005 3.75736 3.75736C6.1005 1.41421 9.89949 1.41421 12.2426 3.75736C14.5858 6.1005 14.5858 9.89949 12.2426 12.2426ZM5.87868 5.87868C6.07394 5.68342 6.39052 5.68342 6.58579 5.87868L8 7.29289L9.41421 5.87868C9.60948 5.68342 9.92606 5.68342 10.1213 5.87868C10.3166 6.07394 10.3166 6.39052 10.1213 6.58579L8.70711 8L10.1213 9.41421C10.3166 9.60948 10.3166 9.92606 10.1213 10.1213C9.92606 10.3166 9.60948 10.3166 9.41421 10.1213L8 8.70711L6.58579 10.1213C6.39052 10.3166 6.07394 10.3166 5.87868 10.1213C5.68342 9.92606 5.68342 9.60948 5.87868 9.41421L7.29289 8L5.87868 6.58579C5.68342 6.39052 5.68342 6.07394 5.87868 5.87868Z"
        fill="#C8C9CC" />
</svg>
