<svg width="32" height="32" viewBox="0 0 32 32" fill="none" xmlns="http://www.w3.org/2000/svg">
<path d="M15.9614 31.9231C24.734 31.9231 31.8457 24.8114 31.8457 16.0388C31.8457 7.26608 24.734 0.154419 15.9614 0.154419C7.18869 0.154419 0.0770264 7.26608 0.0770264 16.0388C0.0770264 24.8114 7.18869 31.9231 15.9614 31.9231Z" fill="#F08C21"/>
<path d="M23.518 19.123C23.2096 22.0532 20.9735 22.9013 17.7349 23.0556V26.1399H15.8072V23.0556C15.3445 23.0556 14.8048 23.0556 14.265 23.0556V26.1399H12.3373V23.0556C11.8747 23.0556 11.412 23.0556 10.9494 23.0556H8.40479L8.63611 21.5134L8.71322 20.8194H14.1879C14.265 20.8194 14.4192 20.8194 14.4964 20.8194C14.5735 20.8194 14.7277 20.8194 14.8048 20.8194C16.5012 20.8194 19.5084 20.7423 19.5084 18.7375C19.5084 17.9664 19.1229 17.5038 18.5831 17.1953C19.3542 17.0411 20.0482 16.8098 20.5879 16.5014C20.8964 16.3471 21.2048 16.1158 21.5132 15.8074C21.5903 15.7303 21.6674 15.6532 21.7445 15.576C22.9783 16.1929 23.7494 17.3495 23.518 19.123Z" fill="white"/>
<path d="M22.3615 12.1063C22.3615 11.952 22.2844 11.7207 22.2844 11.5665C21.8217 9.793 19.9711 9.09903 17.735 8.94481V5.86047H15.8073V8.8677C15.2675 8.8677 14.8049 8.8677 14.2651 8.8677V5.86047H12.3374V8.94481C12.029 8.94481 11.7205 8.94481 11.4892 8.94481C11.4121 8.94481 11.2579 8.94481 11.1808 8.94481H8.55908V10.9496C8.55908 10.9496 9.17595 10.9496 9.56149 10.9496C9.79282 10.9496 9.94703 10.9496 9.94703 10.9496C10.7181 10.9496 10.9494 11.4123 11.0266 11.7978V15.2677V20.1255H14.3422V16.6557C14.4964 16.6557 15.2675 16.7328 16.2699 16.7328C16.5784 16.7328 16.8097 16.7328 17.1181 16.7328C18.1976 16.6557 19.4314 16.4243 20.3567 15.8846C20.588 15.7304 20.8964 15.5761 21.1278 15.3448C21.9759 14.6508 22.5928 13.34 22.3615 12.1063ZM15.1904 14.8822C14.882 14.8822 14.5735 14.8822 14.3422 14.8822V11.181C14.5735 11.181 14.9591 11.181 15.4217 11.181C16.8868 11.181 18.8916 11.4123 18.8916 13.1087C18.8916 14.6508 16.5784 14.8822 15.1904 14.8822Z" fill="white"/>
</svg>
