<svg width="32" height="32" viewBox="0 0 32 32" fill="none" xmlns="http://www.w3.org/2000/svg">
<rect width="32" height="32" rx="16" fill="#02C879"/>
<path fill-rule="evenodd" clip-rule="evenodd" d="M12.6188 9.49548C13.0418 8.89239 13.7321 8.53333 14.4687 8.53333H27.7333L25.255 11.8165C24.828 12.3821 24.1603 12.7147 23.4516 12.7147H10.3612L12.6188 9.49548ZM9.13591 14.8526C9.56025 14.2605 10.244 13.9093 10.9724 13.9093H24.5689L22.0217 17.2113C21.5938 17.7659 20.933 18.0907 20.2326 18.0907H6.81514L9.13591 14.8526ZM7.84083 19.2853C7.10421 19.2853 6.41384 19.6444 5.9909 20.2475L3.73328 23.4666H17.2409C17.9552 23.4666 18.6274 23.1289 19.0538 22.5559L21.4871 19.2853H7.84083Z" fill="white"/>
</svg>
