<svg width="32" height="32" viewBox="0 0 32 32" fill="none" xmlns="http://www.w3.org/2000/svg">
<path d="M16 32C24.8366 32 32 24.8366 32 16C32 7.16344 24.8366 0 16 0C7.16344 0 0 7.16344 0 16C0 24.8366 7.16344 32 16 32Z" fill="#00FFA3"/>
<path fill-rule="evenodd" clip-rule="evenodd" d="M10.76 9.3335C10.6158 9.3335 10.4775 9.39193 10.3756 9.49596L7.74725 12.1769C7.57585 12.3518 7.69715 12.6509 7.93945 12.6509H21.2407C21.3849 12.6509 21.5231 12.5925 21.6251 12.4884L24.2534 9.80746C24.4248 9.6326 24.3035 9.3335 24.0612 9.3335H10.76ZM21.6252 14.4971C21.5233 14.3925 21.385 14.3338 21.2409 14.3338H7.93962C7.69732 14.3338 7.57602 14.6344 7.74742 14.8101L10.3757 17.5039C10.4777 17.6085 10.6159 17.6672 10.7601 17.6672H24.0614C24.3037 17.6672 24.425 17.3666 24.2536 17.1909L21.6252 14.4971ZM10.3757 19.5119C10.4777 19.4079 10.6159 19.3494 10.7601 19.3494H24.0614C24.3037 19.3494 24.425 19.6486 24.2536 19.8234L21.6252 22.5044C21.5233 22.6084 21.385 22.6668 21.2409 22.6668H7.93962C7.69732 22.6668 7.57602 22.3677 7.74742 22.1929L10.3757 19.5119Z" fill="white"/>
<path d="M16 32C24.8366 32 32 24.8366 32 16C32 7.16344 24.8366 0 16 0C7.16344 0 0 7.16344 0 16C0 24.8366 7.16344 32 16 32Z" fill="black"/>
<path fill-rule="evenodd" clip-rule="evenodd" d="M10.759 9.33301C10.6148 9.33301 10.4765 9.39144 10.3746 9.49547L7.74628 12.1764C7.57488 12.3513 7.69618 12.6504 7.93848 12.6504H21.2397C21.3839 12.6504 21.5221 12.592 21.6241 12.4879L24.2524 9.80697C24.4238 9.63211 24.3025 9.33301 24.0602 9.33301H10.759ZM21.6241 14.4962C21.5221 14.3917 21.3839 14.333 21.2397 14.333H7.93848C7.69618 14.333 7.57488 14.6336 7.74628 14.8092L10.3746 17.5031C10.4765 17.6076 10.6148 17.6663 10.759 17.6663H24.0602C24.3025 17.6663 24.4238 17.3658 24.2524 17.1901L21.6241 14.4962ZM10.3746 19.5111C10.4765 19.4071 10.6148 19.3486 10.759 19.3486H24.0602C24.3025 19.3486 24.4238 19.6478 24.2524 19.8226L21.6241 22.5036C21.5221 22.6076 21.3839 22.666 21.2397 22.666H7.93848C7.69618 22.666 7.57488 22.3669 7.74628 22.1921L10.3746 19.5111Z" fill="#00FFA3"/>
</svg>
