<svg width="32" height="32" viewBox="0 0 32 32" fill="none" xmlns="http://www.w3.org/2000/svg">
<path d="M16 32C24.8366 32 32 24.8365 32 16C32 7.16344 24.8366 0 16 0C7.16344 0 0 7.16344 0 16C0 24.8365 7.16344 32 16 32Z" fill="#F08C21"/>
<path d="M22.6825 18.7759C22.4084 21.3805 20.4207 22.1344 17.542 22.2715V25.0131H15.8285V22.2715C15.4172 22.2715 14.9374 22.2715 14.4576 22.2715V25.0131H12.7441V22.2715C12.3329 22.2715 11.9216 22.2715 11.5104 22.2715H9.24854L9.45416 20.9007L9.5227 20.2838H14.3891C14.4576 20.2838 14.5947 20.2838 14.6633 20.2838C14.7318 20.2838 14.8689 20.2838 14.9374 20.2838C16.4453 20.2838 19.1184 20.2153 19.1184 18.4332C19.1184 17.7478 18.7757 17.3366 18.2959 17.0624C18.9813 16.9253 19.5982 16.7197 20.078 16.4455C20.3521 16.3085 20.6263 16.1028 20.9005 15.8287C20.969 15.7601 21.0376 15.6916 21.1061 15.623C22.2028 16.1714 22.8882 17.1995 22.6825 18.7759Z" fill="white"/>
<path d="M21.6546 12.5389C21.6546 12.4018 21.586 12.1962 21.586 12.0591C21.1748 10.4826 19.5298 9.86578 17.5421 9.72869V6.98706H15.8286V9.66015C15.3488 9.66015 14.9375 9.66015 14.4578 9.66015V6.98706H12.7442V9.72869C12.4701 9.72869 12.1959 9.72869 11.9903 9.72869C11.9218 9.72869 11.7847 9.72869 11.7161 9.72869H9.38574V11.5108C9.38574 11.5108 9.93407 11.5108 10.2768 11.5108C10.4824 11.5108 10.6195 11.5108 10.6195 11.5108C11.3049 11.5108 11.5105 11.922 11.579 12.2647V15.349V19.6671H14.5263V16.5828C14.6634 16.5828 15.3488 16.6513 16.2398 16.6513C16.514 16.6513 16.7196 16.6513 16.9938 16.6513C17.9533 16.5828 19.05 16.3772 19.8725 15.8974C20.0781 15.7603 20.3523 15.6232 20.5579 15.4176C21.3118 14.8007 21.8602 13.6355 21.6546 12.5389ZM15.2803 15.0063C15.0061 15.0063 14.7319 15.0063 14.5263 15.0063V11.7164C14.7319 11.7164 15.0746 11.7164 15.4859 11.7164C16.7882 11.7164 18.5702 11.922 18.5702 13.4299C18.5702 14.8007 16.514 15.0063 15.2803 15.0063Z" fill="white"/>
</svg>
