<svg width="32" height="32" viewBox="0 0 32 32" fill="none" xmlns="http://www.w3.org/2000/svg">
<path fill-rule="evenodd" clip-rule="evenodd" d="M16 32C24.8366 32 32 24.8366 32 16C32 7.16344 24.8366 0 16 0C7.16344 0 0 7.16344 0 16C0 24.8366 7.16344 32 16 32Z" fill="black"/>
<path d="M23.8967 9.29335L21.3467 10.5926L9.03294 16.8646C8.9913 16.547 8.97035 16.227 8.97022 15.9067C8.9719 14.6288 9.30743 13.3734 9.94356 12.265C10.5797 11.1566 11.4944 10.2336 12.597 9.58748C13.6996 8.94135 14.9518 8.59448 16.2297 8.58123C17.5077 8.56799 18.7668 8.88883 19.8826 9.51198L21.3422 8.7683L21.5599 8.65719C20.2228 7.68672 18.6435 7.10484 16.9964 6.97584C15.3493 6.84685 13.6986 7.17577 12.2267 7.92625C10.7549 8.67673 9.5192 9.81955 8.65624 11.2284C7.79327 12.6373 7.33664 14.2573 7.33681 15.9094C7.33681 16.1376 7.34547 16.3649 7.3628 16.5913C7.38706 16.9119 7.31596 17.2325 7.15844 17.5128C7.00092 17.793 6.76402 18.0205 6.47755 18.1664L5.70789 18.5589V20.3894L7.97387 19.2345L8.70769 18.8599L9.43076 18.4917L22.412 11.8774L23.8707 11.1346L26.8857 9.59799V7.76836L23.8967 9.29335Z" fill="white"/>
<path d="M26.8857 11.4296L10.1682 19.9416L8.70948 20.6861L5.70789 22.2156V24.0444L8.68888 22.5256L11.2389 21.2264L23.5652 14.9455C23.6068 15.2651 23.6278 15.5872 23.6279 15.9096C23.6271 17.189 23.2917 18.446 22.6549 19.5558C22.0182 20.6655 21.1022 21.5894 19.998 22.2358C18.8938 22.8821 17.6398 23.2284 16.3604 23.2403C15.081 23.2521 13.8207 22.9292 12.7047 22.3034L12.6151 22.3509L11.0328 23.1573C12.3696 24.1278 13.9486 24.7099 15.5955 24.8392C17.2423 24.9685 18.8928 24.64 20.3647 23.89C21.8365 23.1401 23.0724 21.9978 23.9357 20.5894C24.7991 19.1811 25.2563 17.5615 25.2568 15.9096C25.2568 15.6793 25.2478 15.449 25.2308 15.2214C25.2066 14.901 25.2776 14.5805 25.435 14.3002C25.5923 14.02 25.8289 13.7925 26.1152 13.6463L26.8857 13.2538V11.4296Z" fill="white"/>
</svg>
