<svg width="32" height="32" viewBox="0 0 32 32" fill="none" xmlns="http://www.w3.org/2000/svg">
<path d="M0 16C0 7.16344 7.16344 0 16 0C24.8366 0 32 7.16344 32 16C32 24.8366 24.8366 32 16 32C7.16344 32 0 24.8366 0 16Z" fill="#003EFF"/>
<path d="M14.7746 11.6556H10.1333V14.5499H18.8891C19.013 14.5499 19.0998 14.434 19.0502 14.3238C18.3562 12.7576 16.7017 11.6556 14.7746 11.6556Z" fill="white"/>
<path d="M18.8891 17.4502H10.1333V20.3446H14.7746C16.7017 20.3446 18.3562 19.2425 19.0564 17.6764C19.0998 17.5662 19.013 17.4502 18.8891 17.4502Z" fill="white"/>
<path d="M13.2254 23.239H10.1333V26.1334H13.2254V23.239Z" fill="white"/>
<path d="M14.7746 5.8667H10.1333V8.76111H14.7746C19.044 8.76111 22.5079 12.0036 22.5079 16.0001C22.5079 19.8341 19.3229 22.9722 15.2951 23.2216V26.1218C21.0331 25.8666 25.6 21.4351 25.6 16.0001C25.6 10.4026 20.7542 5.8667 14.7746 5.8667Z" fill="white"/>
</svg>
