<svg width="32" height="32" viewBox="0 0 32 32" fill="none" xmlns="http://www.w3.org/2000/svg">
<path fill-rule="evenodd" clip-rule="evenodd" d="M16 32C24.8366 32 32 24.8366 32 16C32 7.16344 24.8366 0 16 0C7.16344 0 0 7.16344 0 16C0 24.8366 7.16344 32 16 32Z" fill="#FA373A"/>
<path d="M25.872 13.0191C24.925 12.1447 23.6151 10.8095 22.5482 9.86258L22.4851 9.81839C22.38 9.73404 22.2616 9.66789 22.1347 9.62269C19.5622 9.14291 7.58965 6.90497 7.35607 6.93337C7.29062 6.94254 7.22806 6.96627 7.173 7.00282L7.11302 7.05016C7.03918 7.12516 6.98309 7.21577 6.94889 7.31531L6.93311 7.35634V7.58045V7.61517C8.28092 11.3682 13.6027 23.6627 14.6507 26.5477C14.7138 26.7434 14.8338 27.1159 15.0579 27.1348H15.1084C15.2283 27.1348 15.7397 26.4593 15.7397 26.4593C15.7397 26.4593 24.8808 15.3738 25.8057 14.1933C25.9254 14.0479 26.0311 13.8914 26.1213 13.7261C26.1444 13.5968 26.1335 13.4636 26.0898 13.3397C26.0461 13.2158 25.971 13.1053 25.872 13.0191ZM18.0849 14.3101L21.9863 11.0747L24.2748 13.1832L18.0849 14.3101ZM16.5698 14.0986L9.85285 8.59368L20.7206 10.598L16.5698 14.0986ZM17.1759 15.5411L24.0507 14.4332L16.1911 23.9026L17.1759 15.5411ZM8.94062 9.14291L16.008 15.1402L14.9853 23.9089L8.94062 9.14291Z" fill="white"/>
</svg>
