<svg width="20" height="20" viewBox="0 0 20 20" fill="none" xmlns="http://www.w3.org/2000/svg">
<path d="M2.5 5.41687H17.5" stroke="#C8C9CC" stroke-width="1.5" stroke-linecap="round"/>
<path d="M7.49959 2.91687L6.66626 5.41687H13.3329L12.4996 2.91687H7.49959Z" stroke="#C8C9CC" stroke-width="1.5" stroke-linecap="round" stroke-linejoin="round"/>
<path d="M4.16626 5.41687H15.8329V16.2502C15.8329 16.7104 15.4598 17.0835 14.9996 17.0835H4.99959C4.53936 17.0835 4.16626 16.7104 4.16626 16.2502V5.41687Z" stroke="#C8C9CC" stroke-width="1.5" stroke-linecap="round" stroke-linejoin="round"/>
<path fill-rule="evenodd" clip-rule="evenodd" d="M8.66626 8.75C8.66626 8.33579 8.33047 8 7.91626 8C7.50205 8 7.16626 8.33579 7.16626 8.75V13.75C7.16626 14.1642 7.50205 14.5 7.91626 14.5C8.33047 14.5 8.66626 14.1642 8.66626 13.75V8.75ZM12.8337 8.75C12.8337 8.33579 12.498 8 12.0837 8C11.6695 8 11.3337 8.33579 11.3337 8.75V13.75C11.3337 14.1642 11.6695 14.5 12.0837 14.5C12.498 14.5 12.8337 14.1642 12.8337 13.75V8.75Z" fill="#C8C9CC"/>
</svg>
