<svg width="110" height="110" viewBox="0 0 110 110" fill="none" xmlns="http://www.w3.org/2000/svg">
    <circle cx="55" cy="55" r="54.5" stroke="white" stroke-opacity="0.5" />
    <path fill-rule="evenodd" clip-rule="evenodd"
        d="M55 109C84.8234 109 109 84.8234 109 55C109 25.1766 84.8234 1 55 1C25.1766 1 1 25.1766 1 55C1 84.8234 25.1766 109 55 109ZM55 25C38.4315 25 25 38.4315 25 55C25 71.5685 38.4315 85 55 85C71.5685 85 85 71.5685 85 55C85 38.4315 71.5685 25 55 25Z"
        fill="#1B1B1C" />
    <path fill-rule="evenodd" clip-rule="evenodd"
        d="M55 109C84.8234 109 109 84.8234 109 55C109 25.1766 84.8234 1 55 1C25.1766 1 1 25.1766 1 55C1 84.8234 25.1766 109 55 109ZM55 25C38.4315 25 25 38.4315 25 55C25 71.5685 38.4315 85 55 85C71.5685 85 85 71.5685 85 55C85 38.4315 71.5685 25 55 25Z"
        fill="url(#paint0_angular)" fill-opacity="0.1" />
    <circle cx="55" cy="55" r="52" stroke="white" stroke-opacity="0.1" stroke-width="0.5" />
    <circle cx="55" cy="55" r="50" stroke="white" stroke-opacity="0.1" stroke-width="0.5" />
    <circle cx="55" cy="55" r="48" stroke="white" stroke-opacity="0.1" stroke-width="0.5" />
    <circle cx="55" cy="55" r="46" stroke="white" stroke-opacity="0.1" stroke-width="0.5" />
    <circle cx="55" cy="55" r="44" stroke="white" stroke-opacity="0.1" stroke-width="0.5" />
    <circle cx="55" cy="55" r="42" stroke="white" stroke-opacity="0.1" stroke-width="0.5" />
    <circle cx="55" cy="55" r="40" stroke="white" stroke-opacity="0.1" stroke-width="0.5" />
    <circle cx="55" cy="55" r="38" stroke="white" stroke-opacity="0.1" stroke-width="0.5" />
    <circle cx="55" cy="55" r="36" stroke="white" stroke-opacity="0.1" stroke-width="0.5" />
    <defs>
        <radialGradient id="paint0_angular" cx="0" cy="0" r="1" gradientUnits="userSpaceOnUse"
            gradientTransform="translate(55 55) rotate(90) scale(54)">
            <stop offset="0.0468701" stop-color="white" />
            <stop offset="0.102649" stop-color="#1B1B1C" />
            <stop offset="0.48681" stop-color="#1B1B1C" />
            <stop offset="0.55455" stop-color="white" />
            <stop offset="0.608652" stop-color="#1B1B1C" />
            <stop offset="0.986496" stop-color="#1B1B1C" />
        </radialGradient>
    </defs>
</svg>
