<svg width="16" height="16" viewBox="0 0 16 16" fill="none" xmlns="http://www.w3.org/2000/svg">
    <path fill-rule="evenodd" clip-rule="evenodd"
        d="M8.00002 2.5C8.77906 2.5 9.52813 2.66484 10.2343 2.93744L8.61741 4.55428C8.417 4.51861 8.21068 4.5 8.00002 4.5C6.06703 4.5 4.50002 6.067 4.50002 8C4.50002 8.21066 4.51863 8.41698 4.5543 8.61739L2.36846 10.8032C1.69987 10.1702 1.1497 9.53339 0.748446 9.02707C0.266142 8.41847 0.266143 7.58153 0.748447 6.97293C2.00984 5.38123 4.743 2.5 8.00002 2.5ZM8.00002 11.5C7.78942 11.5 7.58316 11.4814 7.3828 11.4457L5.76593 13.0626C6.47202 13.3352 7.22104 13.5 8.00002 13.5C11.257 13.5 13.9902 10.6188 15.2516 9.02707C15.7339 8.41847 15.7339 7.58153 15.2516 6.97293C14.8504 6.46664 14.3002 5.82987 13.6317 5.19686L11.4458 7.38277C11.4814 7.58314 11.5 7.7894 11.5 8C11.5 9.933 9.93302 11.5 8.00002 11.5ZM12.9498 3.05025C12.5593 2.65972 11.9261 2.65972 11.5356 3.05025L3.05029 11.5355C2.65976 11.9261 2.65976 12.5592 3.05029 12.9497C3.44081 13.3403 4.07398 13.3403 4.4645 12.9497L12.9498 4.46446C13.3403 4.07394 13.3403 3.44077 12.9498 3.05025Z"
        fill="#C8C9CC" />
</svg>
