<svg width="16" height="16" viewBox="0 0 16 16" fill="none" xmlns="http://www.w3.org/2000/svg">
    <mask id="path-1-inside-1" fill="white">
        <path fill-rule="evenodd" clip-rule="evenodd" d="M8 15C11.866 15 15 11.866 15 8C15 4.13401 11.866 1 8 1C4.13401 1 1 4.13401 1 8C1 11.866 4.13401 15 8 15ZM7.25 5.5C7.25 5.08579 7.58579 4.75 8 4.75C8.41421 4.75 8.75 5.08579 8.75 5.5V8C8.75 8.41421 8.41421 8.75 8 8.75C7.58579 8.75 7.25 8.41421 7.25 8V5.5ZM7.25 10C7.25 9.58579 7.58579 9.25 8 9.25C8.41421 9.25 8.75 9.58579 8.75 10C8.75 10.4142 8.41421 10.75 8 10.75C7.58579 10.75 7.25 10.4142 7.25 10Z"/>
    </mask>
    <path fill-rule="evenodd" clip-rule="evenodd" d="M8 15C11.866 15 15 11.866 15 8C15 4.13401 11.866 1 8 1C4.13401 1 1 4.13401 1 8C1 11.866 4.13401 15 8 15ZM7.25 5.5C7.25 5.08579 7.58579 4.75 8 4.75C8.41421 4.75 8.75 5.08579 8.75 5.5V8C8.75 8.41421 8.41421 8.75 8 8.75C7.58579 8.75 7.25 8.41421 7.25 8V5.5ZM7.25 10C7.25 9.58579 7.58579 9.25 8 9.25C8.41421 9.25 8.75 9.58579 8.75 10C8.75 10.4142 8.41421 10.75 8 10.75C7.58579 10.75 7.25 10.4142 7.25 10Z" fill="#FFCC00"/>
    <path d="M13.5 8C13.5 11.0376 11.0376 13.5 8 13.5V16.5C12.6944 16.5 16.5 12.6944 16.5 8H13.5ZM8 2.5C11.0376 2.5 13.5 4.96243 13.5 8H16.5C16.5 3.30558 12.6944 -0.5 8 -0.5V2.5ZM2.5 8C2.5 4.96243 4.96243 2.5 8 2.5V-0.5C3.30558 -0.5 -0.5 3.30558 -0.5 8H2.5ZM8 13.5C4.96243 13.5 2.5 11.0376 2.5 8H-0.5C-0.5 12.6944 3.30558 16.5 8 16.5V13.5ZM8 3.25C6.75736 3.25 5.75 4.25736 5.75 5.5H8.75C8.75 5.91421 8.41421 6.25 8 6.25V3.25ZM10.25 5.5C10.25 4.25736 9.24264 3.25 8 3.25V6.25C7.58579 6.25 7.25 5.91421 7.25 5.5H10.25ZM10.25 8V5.5H7.25V8H10.25ZM8 10.25C9.24264 10.25 10.25 9.24264 10.25 8H7.25C7.25 7.58579 7.58579 7.25 8 7.25V10.25ZM5.75 8C5.75 9.24264 6.75736 10.25 8 10.25V7.25C8.41421 7.25 8.75 7.58579 8.75 8H5.75ZM5.75 5.5V8H8.75V5.5H5.75ZM8 7.75C6.75736 7.75 5.75 8.75736 5.75 10H8.75C8.75 10.4142 8.41421 10.75 8 10.75V7.75ZM10.25 10C10.25 8.75736 9.24264 7.75 8 7.75V10.75C7.58579 10.75 7.25 10.4142 7.25 10H10.25ZM8 12.25C9.24264 12.25 10.25 11.2426 10.25 10H7.25C7.25 9.58579 7.58579 9.25 8 9.25V12.25ZM5.75 10C5.75 11.2426 6.75736 12.25 8 12.25V9.25C8.41421 9.25 8.75 9.58579 8.75 10H5.75Z" fill="#FFCC00" mask="url(#path-1-inside-1)"/>
</svg>
