<svg width="64" height="64" viewBox="0 0 64 64" fill="none" xmlns="http://www.w3.org/2000/svg">
    <path
        d="M58.0082 14.213C57.5238 13.6681 56.8275 13.3653 56.1009 13.335L35.4529 12.5176L33.9089 15.9993L36.0584 22.4783L32.1832 29.8353L33.7575 35.7693L37.6933 40.8556L43.3851 35.6179C43.9301 35.1032 44.8081 35.1335 45.2925 35.7087L52.5889 43.6107C53.1036 44.1556 53.0733 45.0336 52.5284 45.5483C52.2559 45.7905 51.9229 45.9419 51.5595 45.9116L31.5474 45.1244L30.5483 48.0006L31.6382 50.5741L54.6477 51.452C56.1614 51.5126 57.433 50.3318 57.4633 48.8181L58.7349 16.1809C58.7651 15.4543 58.5229 14.7277 58.0082 14.213ZM43.2337 29.1995C40.9631 29.1086 39.2071 27.2013 39.2979 24.9609C39.3887 22.6902 41.2961 20.9342 43.5365 21.025C45.7769 21.1159 47.5632 23.0232 47.4723 25.2636C47.3815 27.504 45.4741 29.2903 43.2337 29.1995ZM28.3987 48.0309L29.095 45.0033L12.837 46.1235C12.0801 46.1841 11.4444 45.6391 11.3838 44.8822C11.3535 44.5189 11.4746 44.1556 11.7168 43.8831L23.7665 30.0472C24.0087 29.7444 24.372 29.593 24.7656 29.593C25.1289 29.593 25.4922 29.7444 25.7647 30.0169L29.7914 34.2252L28.0657 29.7444L31.1538 21.9939L28.3381 15.7874L29.4886 12.2148L7.32687 13.7589C5.81309 13.8497 4.69289 15.1516 4.78372 16.6654L7.02411 49.3025C7.05439 50.0291 7.38742 50.6952 7.96266 51.1493C8.50762 51.6337 9.20396 51.8759 9.93057 51.8153L29.7308 50.4529L28.3987 48.0309Z"
        fill="#E1E2E6" />
</svg>
