<svg width="36" height="36" viewBox="0 0 36 36" fill="none" xmlns="http://www.w3.org/2000/svg">
<path d="M18 36C27.9411 36 36 27.9411 36 18C36 8.05887 27.9411 0 18 0C8.05888 0 0 8.05887 0 18C0 27.9411 8.05888 36 18 36Z" fill="#F08C21"/>
<path d="M25.518 21.1232C25.2096 24.0533 22.9735 24.9015 19.7349 25.0557V28.14H17.8072V25.0557C17.3445 25.0557 16.8048 25.0557 16.265 25.0557V28.14H14.3373V25.0557C13.8747 25.0557 13.412 25.0557 12.9494 25.0557H10.4048L10.6361 23.5135L10.7132 22.8195H16.1879C16.265 22.8195 16.4192 22.8195 16.4964 22.8195C16.5735 22.8195 16.7277 22.8195 16.8048 22.8195C18.5012 22.8195 21.5084 22.7424 21.5084 20.7376C21.5084 19.9665 21.1229 19.5039 20.5831 19.1954C21.3542 19.0412 22.0482 18.8099 22.5879 18.5015C22.8964 18.3473 23.2048 18.1159 23.5132 17.8075C23.5903 17.7304 23.6674 17.6533 23.7445 17.5762C24.9783 18.193 25.7494 19.3497 25.518 21.1232Z" fill="white"/>
<path d="M24.3615 14.1061C24.3615 13.9519 24.2844 13.7206 24.2844 13.5664C23.8217 11.7929 21.9711 11.0989 19.735 10.9447V7.86035H17.8073V10.8676C17.2675 10.8676 16.8049 10.8676 16.2651 10.8676V7.86035H14.3374V10.9447C14.029 10.9447 13.7205 10.9447 13.4892 10.9447C13.4121 10.9447 13.2579 10.9447 13.1808 10.9447H10.5591V12.9495C10.5591 12.9495 11.1759 12.9495 11.5615 12.9495C11.7928 12.9495 11.947 12.9495 11.947 12.9495C12.7181 12.9495 12.9494 13.4122 13.0266 13.7977V17.2676V22.1254H16.3422V18.6555C16.4964 18.6555 17.2675 18.7326 18.2699 18.7326C18.5784 18.7326 18.8097 18.7326 19.1181 18.7326C20.1976 18.6555 21.4314 18.4242 22.3567 17.8844C22.588 17.7302 22.8964 17.576 23.1278 17.3447C23.9759 16.6507 24.5928 15.3399 24.3615 14.1061ZM17.1904 16.882C16.882 16.882 16.5735 16.882 16.3422 16.882V13.1808C16.5735 13.1808 16.9591 13.1808 17.4217 13.1808C18.8868 13.1808 20.8916 13.4122 20.8916 15.1085C20.8916 16.6507 18.5784 16.882 17.1904 16.882Z" fill="white"/>
</svg>
