<svg width="36" height="36" viewBox="0 0 36 36" fill="none" xmlns="http://www.w3.org/2000/svg">
<path fill-rule="evenodd" clip-rule="evenodd" d="M18 36C27.9411 36 36 27.9411 36 18C36 8.05888 27.9411 0 18 0C8.05888 0 0 8.05888 0 18C0 27.9411 8.05888 36 18 36Z" fill="#292C33"/>
<path d="M25.8966 11.2931L23.3465 12.5923L11.0328 18.8643C10.9912 18.5467 10.9702 18.2268 10.9701 17.9065C10.9718 16.6285 11.3073 15.3732 11.9434 14.2648C12.5796 13.1563 13.4942 12.2334 14.5968 11.5872C15.6994 10.9411 16.9517 10.5942 18.2296 10.581C19.5075 10.5677 20.7667 10.8886 21.8825 11.5117L23.3421 10.7681L23.5598 10.6569C22.2227 9.68648 20.6434 9.10459 18.9963 8.9756C17.3492 8.8466 15.6985 9.17552 14.2266 9.92601C12.7548 10.6765 11.5191 11.8193 10.6561 13.2282C9.79315 14.637 9.33652 16.257 9.33669 17.9092C9.33669 18.1374 9.34535 18.3646 9.36267 18.591C9.38694 18.9116 9.31583 19.2322 9.15831 19.5125C9.0008 19.7928 8.7639 20.0202 8.47743 20.1662L7.70776 20.5586V22.3892L9.97375 21.2342L10.7076 20.8597L11.4306 20.4914L24.4119 13.8772L25.8706 13.1344L28.8856 11.5977V9.76812L25.8966 11.2931Z" fill="white"/>
<path d="M28.8856 13.4292L12.168 21.9412L10.7094 22.6858L7.70776 24.2153V26.044L10.6888 24.5253L13.2388 23.2261L25.565 16.9451C25.6067 17.2648 25.6277 17.5868 25.6278 17.9092C25.627 19.1887 25.2915 20.4456 24.6548 21.5554C24.018 22.6651 23.1021 23.589 21.9979 24.2354C20.8937 24.8817 19.6397 25.228 18.3603 25.2399C17.0809 25.2518 15.8206 24.9288 14.7046 24.3031L14.615 24.3505L13.0327 25.1569C14.3695 26.1274 15.9485 26.7095 17.5953 26.8388C19.2422 26.9681 20.8927 26.6396 22.3646 25.8897C23.8364 25.1397 25.0723 23.9974 25.9356 22.5891C26.799 21.1807 27.2561 19.5611 27.2567 17.9092C27.2567 17.6789 27.2477 17.4487 27.2307 17.2211C27.2065 16.9006 27.2775 16.5801 27.4348 16.2998C27.5922 16.0196 27.8288 15.7921 28.1151 15.6459L28.8856 15.2535V13.4292Z" fill="white"/>
</svg>
