<svg width="36" height="36" viewBox="0 0 36 36" fill="none" xmlns="http://www.w3.org/2000/svg">
<path d="M18 36C27.9411 36 36 27.9411 36 18C36 8.05887 27.9411 0 18 0C8.05887 0 0 8.05887 0 18C0 27.9411 8.05887 36 18 36Z" fill="#00FFA3"/>
<path fill-rule="evenodd" clip-rule="evenodd" d="M12.1046 10.5C11.9424 10.5 11.7868 10.5657 11.6721 10.6828L8.71529 13.6989C8.52247 13.8956 8.65893 14.2321 8.93152 14.2321H23.8954C24.0576 14.2321 24.2131 14.1663 24.3279 14.0493L27.2847 11.0332C27.4775 10.8365 27.3411 10.5 27.0685 10.5H12.1046ZM24.3282 16.3094C24.2135 16.1918 24.058 16.1257 23.8958 16.1257H8.93189C8.6593 16.1257 8.52284 16.4639 8.71566 16.6615L11.6725 19.6921C11.7872 19.8097 11.9428 19.8757 12.1049 19.8757H27.0688C27.3414 19.8757 27.4779 19.5376 27.2851 19.34L24.3282 16.3094ZM11.6725 21.9511C11.7872 21.834 11.9428 21.7683 12.1049 21.7683H27.0688C27.3414 21.7683 27.4779 22.1048 27.2851 22.3015L24.3282 25.3176C24.2135 25.4347 24.058 25.5004 23.8958 25.5004H8.93189C8.6593 25.5004 8.52284 25.1639 8.71566 24.9672L11.6725 21.9511Z" fill="white"/>
<path d="M18 36C27.9411 36 36 27.9411 36 18C36 8.05887 27.9411 0 18 0C8.05887 0 0 8.05887 0 18C0 27.9411 8.05887 36 18 36Z" fill="#67EBBA"/>
<path fill-rule="evenodd" clip-rule="evenodd" d="M12.1043 10.4995C11.9421 10.4995 11.7866 10.5652 11.6719 10.6823L8.71505 13.6984C8.52222 13.8951 8.65869 14.2316 8.93127 14.2316H23.8952C24.0574 14.2316 24.2129 14.1658 24.3276 14.0488L27.2845 11.0327C27.4773 10.836 27.3408 10.4995 27.0682 10.4995H12.1043ZM24.3277 16.3083C24.213 16.1907 24.0574 16.1246 23.8952 16.1246H8.93134C8.65875 16.1246 8.52229 16.4628 8.71511 16.6604L11.6719 19.691C11.7867 19.8086 11.9422 19.8746 12.1044 19.8746H27.0683C27.3409 19.8746 27.4773 19.5365 27.2845 19.3389L24.3277 16.3083ZM11.6719 21.95C11.7867 21.8329 11.9422 21.7672 12.1044 21.7672H27.0683C27.3409 21.7672 27.4773 22.1037 27.2845 22.3004L24.3277 25.3165C24.213 25.4336 24.0574 25.4993 23.8952 25.4993H8.93134C8.65875 25.4993 8.52229 25.1628 8.71511 24.9661L11.6719 21.95Z" fill="white"/>
</svg>
