<svg width="52" height="43" viewBox="0 0 52 43" fill="none" xmlns="http://www.w3.org/2000/svg">
<path fill-rule="evenodd" clip-rule="evenodd" d="M8.76923 0.523911C9.09939 0.188443 9.54703 0 10.0138 0H53.0777C53.8622 0 54.255 0.964648 53.7 1.52851L45.1906 10.1747C44.8605 10.5101 44.4129 10.6986 43.9462 10.6986H0.882132C0.0976411 10.6986 -0.295075 9.73393 0.259866 9.17007L8.76923 0.523911ZM8.76923 32.825C9.09939 32.4894 9.54703 32.3011 10.0138 32.3011H53.0777C53.8622 32.3011 54.255 33.2656 53.7 33.8295L45.1906 42.4756C44.8605 42.8112 44.4129 42.9997 43.9462 42.9997H0.882132C0.0976411 42.9997 -0.295075 42.035 0.259866 41.4711L8.76923 32.825ZM43.9788 16.0482C44.4459 16.0482 44.8939 16.2366 45.2242 16.5724L53.7399 25.225C54.2954 25.7893 53.9023 26.7547 53.1172 26.7547H10.0212C9.55413 26.7547 9.10615 26.5661 8.77575 26.2303L0.26006 17.5777C-0.295294 17.0134 0.0977126 16.0482 0.882788 16.0482H43.9788Z" fill="white" fill-opacity="0.2"/>
</svg>
