<svg width="36" height="36" viewBox="0 0 36 36" fill="none" xmlns="http://www.w3.org/2000/svg">
<path d="M18 36C27.9411 36 36 27.9411 36 18C36 8.05887 27.9411 0 18 0C8.05888 0 0 8.05887 0 18C0 27.9411 8.05888 36 18 36Z" fill="#F3F3F5"/>
<path fill-rule="evenodd" clip-rule="evenodd" d="M9 12C9 11.4477 9.44772 11 10 11H26C26.5523 11 27 11.4477 27 12C27 12.5523 26.5523 13 26 13H10C9.44772 13 9 12.5523 9 12ZM9 18C9 17.4477 9.44772 17 10 17H26C26.5523 17 27 17.4477 27 18C27 18.5523 26.5523 19 26 19H10C9.44772 19 9 18.5523 9 18ZM10 23C9.44772 23 9 23.4477 9 24C9 24.5523 9.44772 25 10 25H20C20.5523 25 21 24.5523 21 24C21 23.4477 20.5523 23 20 23H10Z" fill="#919499"/>
</svg>
