<svg width="44" height="53" viewBox="0 0 44 53" fill="none" xmlns="http://www.w3.org/2000/svg">
<path fill-rule="evenodd" clip-rule="evenodd" d="M40.4114 17.351C40.4674 17.6309 40.5233 17.9107 40.5233 18.1346C41.195 21.7167 39.4039 25.5228 36.9412 27.5377C36.4542 28.0247 35.8495 28.394 35.2978 28.7309C35.0886 28.8587 34.887 28.9818 34.7024 29.1049C32.0158 30.6721 28.4336 31.3437 25.2992 31.5676H22.8365C20.746 31.5676 19.002 31.4521 18.0193 31.387C17.6339 31.3615 17.3656 31.3437 17.2394 31.3437V41.4185H7.61243V27.3138V17.2391C7.38855 16.1196 6.71689 14.7763 4.47806 14.7763H3.35864H0.448151V8.95535H8.0602H8.95573H11.4185V0H17.0155V8.73147H21.4932V0H27.0903V8.95535C33.5829 9.40312 38.9562 11.4181 40.2995 16.5674C40.2995 16.7913 40.3554 17.0711 40.4114 17.351ZM17.2394 26.1944H19.7022C23.7321 26.1944 30.4486 25.5228 30.4486 21.0451C30.4486 16.1196 24.6276 15.448 20.3738 15.448H17.2394V26.1944ZM27.0899 49.9259C36.4931 49.4781 42.9857 47.0154 43.8812 38.5078C44.5529 33.3585 42.314 30.0002 38.7319 28.2092L38.0602 28.8808C37.1647 29.7763 36.2692 30.448 35.3736 30.8958C33.8065 31.7913 31.7915 32.4629 29.5527 32.9107C31.1199 33.8062 32.2393 35.1495 32.2393 37.3884C32.2393 43.2094 23.5078 43.4332 18.5824 43.4332H17.6868H16.7913H0.895536L0.671652 45.4482L0 49.9259H7.38817H11.4181V58.8812H17.0152V49.9259H21.4928V58.8812H27.0899V49.9259Z" fill="white" fill-opacity="0.16"/>
</svg>
