<svg width="52" height="44" viewBox="0 0 52 44" fill="none" xmlns="http://www.w3.org/2000/svg">
<g opacity="0.08">
<path d="M44.6607 5.75757L38.3994 8.94762L8.16433 24.3479C8.06209 23.5681 8.01064 22.7825 8.01032 21.996C8.01446 18.8581 8.83831 15.7757 10.4003 13.0541C11.9622 10.3326 14.2081 8.06629 16.9154 6.47977C19.6227 4.89326 22.6976 4.04156 25.8353 4.00904C28.9731 3.97652 32.0649 4.76432 34.8045 6.29438L38.3884 4.46835L38.923 4.19555C35.64 1.81267 31.762 0.383903 27.7177 0.0671694C23.6735 -0.249564 19.6204 0.558066 16.0064 2.4008C12.3924 4.24353 9.35829 7.04961 7.23937 10.5089C5.12045 13.9682 3.99924 17.946 3.99966 22.0026C3.99966 22.5629 4.02093 23.121 4.06346 23.6769C4.12303 24.4641 3.94845 25.2513 3.56168 25.9395C3.17491 26.6277 2.59323 27.1861 1.88983 27.5445L0 28.5081V33.0028L5.56389 30.167L7.36571 29.2473L9.14114 28.3431L41.0152 12.1025L44.5969 10.2786L52 6.50559V2.01311L44.6607 5.75757Z" fill="white"/>
<path d="M52 11.0027L10.9518 31.903L7.37011 33.7312L0 37.4867V41.977L7.31951 38.2479L13.5808 35.0579L43.8467 19.6356C43.949 20.4206 44.0004 21.2113 44.0007 22.0029C43.9987 25.1444 43.1751 28.2308 41.6116 30.9557C40.0482 33.6806 37.7992 35.9491 35.0879 37.5362C32.3767 39.1232 29.2975 39.9735 26.1561 40.0026C23.0147 40.0318 19.9203 39.2388 17.1801 37.7023L16.9601 37.8189L13.0748 39.7989C16.3571 42.1819 20.2343 43.6111 24.2779 43.9286C28.3215 44.2461 32.3742 43.4395 35.9882 41.598C39.6022 39.7566 42.6368 36.9518 44.7566 33.4938C46.8764 30.0357 47.999 26.059 48.0003 22.0029C48.0003 21.4375 47.9783 20.872 47.9365 20.3132C47.8771 19.5263 48.0514 18.7394 48.4378 18.0513C48.8241 17.3631 49.4052 16.8045 50.108 16.4456L52 15.482V11.0027Z" fill="white"/>
</g>
</svg>
