<svg width="24" height="24" viewBox="0 0 24 24" fill="none" xmlns="http://www.w3.org/2000/svg">
<path d="M9 12C9 13.1046 8.10457 14 7 14C5.89543 14 5 13.1046 5 12C5 10.8954 5.89543 10 7 10C8.10457 10 9 10.8954 9 12Z" stroke="#292C33" stroke-width="2"/>
<path d="M19 6C19 7.10457 18.1046 8 17 8C15.8954 8 15 7.10457 15 6C15 4.89543 15.8954 4 17 4C18.1046 4 19 4.89543 19 6Z" stroke="#292C33" stroke-width="2"/>
<path d="M19 18C19 16.8954 18.1046 16 17 16C15.8954 16 15 16.8954 15 18C15 19.1046 15.8954 20 17 20C18.1046 20 19 19.1046 19 18Z" stroke="#292C33" stroke-width="2"/>
<path fill-rule="evenodd" clip-rule="evenodd" d="M17.9639 5.73292C17.9874 5.81794 18 5.9075 18 6C18 6.03108 17.9986 6.06184 17.9958 6.0922C18.0069 5.97306 17.9968 5.8513 17.9639 5.73292ZM17.5914 6.80646C17.705 6.72298 17.8004 6.61606 17.8703 6.49282C17.8023 6.61314 17.7086 6.72071 17.5914 6.80646ZM17.4988 6.86692C17.352 6.95157 17.1816 7 17 7C16.4477 7 16 6.55228 16 6C16 5.64179 16.1883 5.32757 16.4714 5.15096L6.50122 11.1331C6.64803 11.0484 6.81836 11 7 11C7.55228 11 8 11.4477 8 12C8 12.3582 7.81165 12.6724 7.52858 12.849L17.4988 6.86692ZM7.26738 12.9639C7.18227 12.9874 7.0926 13 7 13C6.96891 13 6.93816 12.9986 6.9078 12.9958C7.02704 13.0069 7.1489 12.9968 7.26738 12.9639ZM6.19354 12.5914C6.27707 12.7051 6.38408 12.8005 6.50742 12.8705C6.387 12.8025 6.27934 12.7087 6.19354 12.5914ZM6.03606 12.2671C6.01256 12.1821 6 12.0925 6 12C6 11.9686 6.00144 11.9376 6.00427 11.907C5.99302 12.0264 6.00311 12.1484 6.03606 12.2671ZM6.4086 11.1935C6.29494 11.277 6.19957 11.384 6.12964 11.5072C6.19763 11.3869 6.29137 11.2793 6.4086 11.1935ZM16.7331 5.03602C16.818 5.01254 16.9076 5 17 5C17.0314 5 17.0624 5.00144 17.093 5.00427C16.9737 4.99302 16.8517 5.00311 16.7331 5.03602ZM17.4928 5.12964C17.6131 5.19763 17.7207 5.29137 17.8065 5.4086C17.723 5.29494 17.616 5.19958 17.4928 5.12964Z" fill="#292C33"/>
<path fill-rule="evenodd" clip-rule="evenodd" d="M17.4929 18.8703C17.6161 18.8004 17.723 18.705 17.8065 18.5914C17.7207 18.7086 17.6132 18.8023 17.4929 18.8703ZM17.0922 18.9958C17.0618 18.9986 17.0311 19 17 19C16.9077 19 16.8182 18.9875 16.7334 18.9641C16.8516 18.9968 16.9732 19.0069 17.0922 18.9958ZM16.4714 18.849L6.50122 12.8669C6.64803 12.9516 6.81836 13 7 13C7.55228 13 8 12.5523 8 12C8 11.6418 7.81165 11.3276 7.52859 11.151L17.4988 17.1331C17.352 17.0484 17.1816 17 17 17C16.4477 17 16 17.4477 16 18C16 18.3582 16.1883 18.6724 16.4714 18.849ZM17.8703 17.5072C17.8004 17.3839 17.705 17.277 17.5914 17.1935C17.7086 17.2793 17.8023 17.3869 17.8703 17.5072ZM17.9958 17.9078C17.9986 17.9382 18 17.9689 18 18C18 18.0925 17.9874 18.1821 17.9639 18.2671C17.9968 18.1487 18.0069 18.0269 17.9958 17.9078ZM7.26702 11.036C7.14839 11.0031 7.02637 10.993 6.90699 11.0043C6.93761 11.0014 6.96864 11 7 11C7.09248 11 7.18202 11.0126 7.26702 11.036ZM6.50727 11.1296C6.38709 11.1975 6.27963 11.2911 6.19392 11.4081C6.27737 11.2946 6.38418 11.1994 6.50727 11.1296ZM6.03606 11.7329C6.00311 11.8516 5.99302 11.9736 6.00427 12.093C6.00144 12.0624 6 12.0314 6 12C6 11.9075 6.01255 11.818 6.03606 11.7329ZM6.12965 12.4928C6.19743 12.6128 6.29081 12.7201 6.40755 12.8057C6.29436 12.7223 6.19937 12.6157 6.12965 12.4928Z" fill="#292C33"/>
</svg>
