<svg width="60" height="60" viewBox="0 0 60 60" fill="none" xmlns="http://www.w3.org/2000/svg">
<path opacity="0.1" d="M30 60C38.2842 60 45.7842 56.6421 51.2132 51.2132C56.6421 45.7842 60 38.2842 60 30C60 21.7158 56.6421 14.2158 51.2132 8.78679C45.7842 3.35787 38.2842 0 30 0C21.7158 0 14.2158 3.35787 8.78679 8.78679C3.35787 14.2158 0 21.7158 0 30C0 38.2842 3.35787 45.7842 8.78679 51.2132C14.2158 56.6421 21.7158 60 30 60Z" fill="#F0665B"/>
<path d="M33.15 41.5C33.15 43.2397 31.7397 44.65 30 44.65C28.2603 44.65 26.85 43.2397 26.85 41.5C26.85 39.7603 28.2603 38.35 30 38.35C31.7397 38.35 33.15 39.7603 33.15 41.5Z" fill="#F0665B" stroke="#F0665B" stroke-width="0.7"/>
<path d="M30 16.5V31.5V16.5Z" fill="#F0665B"/>
<path d="M30 16.5V31.5" stroke="#F0665B" stroke-width="6" stroke-linecap="round" stroke-linejoin="round"/>
</svg>
