<svg width="15" height="15" viewBox="0 0 15 15" fill="none" xmlns="http://www.w3.org/2000/svg">
<path d="M11.8908 12.9516C10.69 13.9199 9.16261 14.4997 7.49985 14.4997C3.63394 14.4997 0.5 11.3658 0.5 7.49985C0.5 3.63394 3.63394 0.5 7.49985 0.5C11.3658 0.5 14.4997 3.63394 14.4997 7.49985C14.4997 9.16267 13.9199 10.6901 12.9515 11.8909L14.698 13.6374C14.9909 13.9303 14.9909 14.4052 14.698 14.6981C14.4051 14.991 13.9302 14.991 13.6373 14.6981L11.8908 12.9516ZM12.9997 7.49985C12.9997 4.46237 10.5373 2 7.49985 2C4.46237 2 2 4.46237 2 7.49985C2 10.5373 4.46237 12.9997 7.49985 12.9997C10.5373 12.9997 12.9997 10.5373 12.9997 7.49985Z" fill="#292C33"/>
</svg>
