<svg width="24" height="24" viewBox="0 0 24 24" fill="none" xmlns="http://www.w3.org/2000/svg">
<rect width="24" height="24" fill="white"/>
<path d="M4 12.1992H20.4" stroke="#5C5F66" stroke-width="1.66667" stroke-linecap="round" stroke-linejoin="round"/>
<path d="M12.2 20.4C16.7287 20.4 20.4 16.7287 20.4 12.2C20.4 7.67126 16.7287 4 12.2 4C7.67126 4 4 7.67126 4 12.2C4 16.7287 7.67126 20.4 12.2 20.4Z" stroke="#5C5F66" stroke-width="1.66667" stroke-linecap="round" stroke-linejoin="round"/>
<path d="M12.1999 4C14.251 6.24545 15.4166 9.15947 15.4799 12.2C15.4166 15.2405 14.251 18.1546 12.1999 20.4C10.1489 18.1546 8.98326 15.2405 8.91992 12.2C8.98326 9.15947 10.1489 6.24545 12.1999 4V4Z" stroke="#5C5F66" stroke-width="1.66667" stroke-linecap="round" stroke-linejoin="round"/>
<rect width="24" height="24" fill="white"/>
<path d="M4 12.1992H20.4" stroke="#5C5F66" stroke-width="1.66667" stroke-linecap="round" stroke-linejoin="round"/>
<path d="M12.2 20.4C16.7287 20.4 20.4 16.7287 20.4 12.2C20.4 7.67126 16.7287 4 12.2 4C7.67126 4 4 7.67126 4 12.2C4 16.7287 7.67126 20.4 12.2 20.4Z" stroke="#5C5F66" stroke-width="1.66667" stroke-linecap="round" stroke-linejoin="round"/>
<path d="M12.1999 4C14.251 6.24545 15.4166 9.15947 15.4799 12.2C15.4166 15.2405 14.251 18.1546 12.1999 20.4C10.1489 18.1546 8.98326 15.2405 8.91992 12.2C8.98326 9.15947 10.1489 6.24545 12.1999 4V4Z" stroke="#5C5F66" stroke-width="1.66667" stroke-linecap="round" stroke-linejoin="round"/>
</svg>
