<svg width="20" height="20" viewBox="0 0 20 20" fill="none" xmlns="http://www.w3.org/2000/svg">
<path fill-rule="evenodd" clip-rule="evenodd" d="M4 0C1.79086 0 0 1.79086 0 4V16C0 18.2091 1.79086 20 4 20H16C18.2091 20 20 18.2091 20 16V4C20 1.79086 18.2091 0 16 0H4ZM9.25 5.75C9.25 5.33579 9.58579 5 10 5C10.4142 5 10.75 5.33579 10.75 5.75V9.25H14.25C14.6642 9.25 15 9.58579 15 10C15 10.4142 14.6642 10.75 14.25 10.75H10.75V14.25C10.75 14.6642 10.4142 15 10 15C9.58579 15 9.25 14.6642 9.25 14.25V10.75H5.75C5.33579 10.75 5 10.4142 5 10C5 9.58579 5.33579 9.25 5.75 9.25H9.25V5.75Z" fill="white"/>
</svg>
