<svg width="16" height="16" viewBox="0 0 16 16" fill="none" xmlns="http://www.w3.org/2000/svg">
<path fill-rule="evenodd" clip-rule="evenodd" d="M15.5 8C15.5 12.1421 12.1421 15.5 8 15.5C3.85786 15.5 0.5 12.1421 0.5 8C0.5 3.85786 3.85786 0.5 8 0.5C12.1421 0.5 15.5 3.85786 15.5 8ZM8 3.625C8.34518 3.625 8.625 3.8815 8.625 4.19792V9.92708C8.625 10.2435 8.34518 10.5 8 10.5C7.65482 10.5 7.375 10.2435 7.375 9.92708V4.19792C7.375 3.8815 7.65482 3.625 8 3.625ZM8 12.375C8.34518 12.375 8.625 12.0952 8.625 11.75C8.625 11.4048 8.34518 11.125 8 11.125C7.65482 11.125 7.375 11.4048 7.375 11.75C7.375 12.0952 7.65482 12.375 8 12.375Z" fill="#F5AD49"/>
</svg>
