<svg width="18" height="4" viewBox="0 0 18 4" fill="none" xmlns="http://www.w3.org/2000/svg">
<path fill-rule="evenodd" clip-rule="evenodd" d="M4.25 2C4.25 2.9665 3.4665 3.75 2.5 3.75C1.5335 3.75 0.75 2.9665 0.75 2C0.75 1.0335 1.5335 0.25 2.5 0.25C3.4665 0.25 4.25 1.0335 4.25 2ZM10.75 2C10.75 2.9665 9.9665 3.75 9 3.75C8.0335 3.75 7.25 2.9665 7.25 2C7.25 1.0335 8.0335 0.25 9 0.25C9.9665 0.25 10.75 1.0335 10.75 2ZM15.5 3.75C16.4665 3.75 17.25 2.9665 17.25 2C17.25 1.0335 16.4665 0.25 15.5 0.25C14.5335 0.25 13.75 1.0335 13.75 2C13.75 2.9665 14.5335 3.75 15.5 3.75Z" fill="#292C33"/>
</svg>
