<svg width="20" height="20" viewBox="0 0 20 20" fill="none" xmlns="http://www.w3.org/2000/svg">
<path d="M7.91667 8.33333C9.5275 8.33333 10.8333 7.0275 10.8333 5.41667C10.8333 3.80584 9.5275 2.5 7.91667 2.5C6.30583 2.5 5 3.80584 5 5.41667C5 7.0275 6.30583 8.33333 7.91667 8.33333Z" stroke="#A7ACB5" stroke-width="2" stroke-linecap="round" stroke-linejoin="round"/>
<path d="M13.75 3.3335C13.75 3.3335 14.6875 5.2085 13.75 7.50016" stroke="#A7ACB5" stroke-width="2" stroke-linecap="round" stroke-linejoin="round"/>
<path d="M16.666 1.6665C16.666 1.6665 18.541 5.0415 16.666 9.1665" stroke="#A7ACB5" stroke-width="2" stroke-linecap="round" stroke-linejoin="round"/>
<path d="M1.66602 15.5554C1.66602 13.4076 3.40711 11.6665 5.55487 11.6665L7.91602 11.6665L10.2772 11.6665C12.4249 11.6665 14.166 13.4076 14.166 15.5554V15.5554C14.166 16.6293 13.2955 17.4998 12.2216 17.4998H3.61046C2.53657 17.4998 1.66602 16.6293 1.66602 15.5554V15.5554Z" stroke="#A7ACB5" stroke-width="2" stroke-linejoin="round"/>
<path d="M2 2L18 18" stroke="#A7ACB5" stroke-width="2" stroke-linecap="round" stroke-linejoin="round"/>
</svg>
