<svg width="28" height="26" viewBox="0 0 28 26" fill="none" xmlns="http://www.w3.org/2000/svg">
    <path fill-rule="evenodd" clip-rule="evenodd" d="M5 6C5 5.44772 5.44772 5 6 5H22C22.5523 5 23 5.44772 23 6C23 6.55228 22.5523 7 22 7H6C5.44772 7 5 6.55228 5 6ZM5 12C5 11.4477 5.44772 11 6 11H22C22.5523 11 23 11.4477 23 12C23 12.5523 22.5523 13 22 13H6C5.44772 13 5 12.5523 5 12ZM6 17C5.44772 17 5 17.4477 5 18C5 18.5523 5.44772 19 6 19H16C16.5523 19 17 18.5523 17 18C17 17.4477 16.5523 17 16 17H6Z" fill="#292C33"/>
</svg>
