<svg width="20" height="20" viewBox="0 0 20 20" fill="none" xmlns="http://www.w3.org/2000/svg">
<path fill-rule="evenodd" clip-rule="evenodd" d="M10 9.99984V8.74493C10 8.2145 10.2107 7.70579 10.5858 7.33072L15.2083 2.70817C15.7836 2.13287 16.7164 2.13287 17.2917 2.70817V2.70817C17.867 3.28347 17.867 4.21621 17.2917 4.7915L12.6691 9.41405C12.294 9.78912 11.7853 9.99984 11.2549 9.99984H10Z" stroke="#A7ACB5" stroke-width="2" stroke-linecap="round" stroke-linejoin="round"/>
<path d="M6.66602 10H3.74935C2.59876 10 1.66602 10.9328 1.66602 12.0833C1.66602 13.2339 2.59876 14.1667 3.74935 14.1667H16.2493C17.3999 14.1667 18.3327 15.0994 18.3327 16.25C18.3327 17.4006 17.3999 18.3333 16.2493 18.3333H7.49935" stroke="#A7ACB5" stroke-width="2" stroke-linecap="round" stroke-linejoin="round"/>
</svg>
