<svg width="20" height="20" viewBox="0 0 20 20" fill="none" xmlns="http://www.w3.org/2000/svg">
<path d="M1.66602 7.90237C1.91135 7.66987 2.16402 7.44958 2.42327 7.24149C7.09814 3.48942 13.9086 3.70971 18.3327 7.90237" stroke="#A7ACB5" stroke-width="2" stroke-linecap="round" stroke-linejoin="round"/>
<path d="M15.8327 10.7497C12.611 7.52808 7.38768 7.52808 4.16602 10.7497" stroke="#A7ACB5" stroke-width="2" stroke-linecap="round" stroke-linejoin="round"/>
<path d="M13.3327 13.4642C11.4917 11.6233 8.50697 11.6233 6.66602 13.4642" stroke="#A7ACB5" stroke-width="2" stroke-linecap="round" stroke-linejoin="round"/>
<path fill-rule="evenodd" clip-rule="evenodd" d="M10.0007 16.6668C10.5759 16.6668 11.0423 16.2005 11.0423 15.6252C11.0423 15.0499 10.5759 14.5835 10.0007 14.5835C9.42536 14.5835 8.95898 15.0499 8.95898 15.6252C8.95898 16.2005 9.42536 16.6668 10.0007 16.6668Z" fill="#A7ACB5"/>
<path d="M2 2L18 18" stroke="#A7ACB5" stroke-width="2" stroke-linecap="round" stroke-linejoin="round"/>
</svg>
