<svg width="16" height="16" viewBox="0 0 16 16" fill="none" xmlns="http://www.w3.org/2000/svg">
<path fill-rule="evenodd" clip-rule="evenodd" d="M13.1213 1.70729C11.9497 0.535722 10.0503 0.535718 8.87868 1.70729L7.62623 2.95975L0.585786 10.0002C0.210714 10.3753 0 10.884 0 11.4144V15.0002C0 15.5525 0.447715 16.0002 1 16.0002H4.58579C5.11622 16.0002 5.62493 15.7895 6 15.4144L13.0404 8.37396L14.2929 7.12151C15.4645 5.94993 15.4645 4.05044 14.2929 2.87887L13.1213 1.70729ZM10.2929 3.12151C10.6834 2.73098 11.3166 2.73098 11.7071 3.12151L12.8787 4.29308C13.2692 4.6836 13.2692 5.31677 12.8787 5.70729L12.3333 6.25264L9.74755 3.66685L10.2929 3.12151ZM8.33333 5.08107L10.9191 7.66685L4.58579 14.0002L2 14.0002V11.4144L8.33333 5.08107ZM9 14.0002C8.44771 14.0002 8 14.4479 8 15.0002C8 15.5525 8.44771 16.0002 9 16.0002H15C15.5523 16.0002 16 15.5525 16 15.0002C16 14.4479 15.5523 14.0002 15 14.0002H9Z" fill="#292C33"/>
</svg>
