<svg width="168" height="48" viewBox="0 0 168 48" fill="none" xmlns="http://www.w3.org/2000/svg">
<g clip-path="url(#clip0)">
<g clip-path="url(#clip1)">
<g clip-path="url(#clip2)">
<g clip-path="url(#clip3)">
<rect x="10.4199" y="18.9932" width="9.50158" height="9.50158" fill="#8179F2"/>
<path d="M29.4283 19.0084L19.9268 28.51V19.0084L29.4283 9.50684V19.0084Z" fill="#7269F0"/>
<path d="M29.4283 28.4947L19.9268 37.9963V28.4947L29.4283 18.9932V28.4947Z" fill="#B6B1FF"/>
<rect x="29.4238" y="18.9932" width="9.50158" height="9.50158" fill="#8179F2"/>
<path d="M19.9215 9.50158L29.4231 0V9.50158L19.9215 19.0032H10.4199L19.9215 9.50158Z" fill="#B6B1FF"/>
<path d="M29.4281 38.0126L19.9265 47.5142L19.9265 38.0126L29.4281 28.511L38.9297 28.511L29.4281 38.0126Z" fill="#7269F0"/>
</g>
</g>
</g>
<path d="M63.2451 16.3157C63.7796 15.8881 64.5279 15.6387 65.4543 15.6387C67.7346 15.6387 69.9794 16.4582 72.1529 18.0973L74.9677 14.0353C73.7206 13.002 72.2598 12.1825 70.6207 11.6124C68.9461 11.0423 67.2714 10.7573 65.6324 10.7573C63.067 10.7573 60.9648 11.3987 59.2545 12.6814C57.5442 13.9641 56.7247 15.8169 56.7247 18.1685C56.7247 20.5202 57.366 22.2661 58.72 23.3706C60.074 24.4752 62.1762 25.366 65.098 26.043C66.9151 26.5062 68.1266 26.9694 68.7679 27.3969C69.3737 27.8245 69.6943 28.4302 69.6943 29.1785C69.6943 29.9267 69.3737 30.5325 68.8036 30.96C68.2335 31.3876 67.414 31.6014 66.4163 31.6014C64.1359 31.6014 61.6418 30.4256 58.9694 28.0739L55.6558 32.1358C58.7913 35.0576 62.3544 36.5184 66.3094 36.5184C69.0174 36.5184 71.2265 35.8415 72.9011 34.4519C74.5758 33.0622 75.4309 31.2451 75.4309 29.0003C75.4309 26.7912 74.7539 25.0809 73.4712 23.9051C72.1529 22.7649 70.3001 21.8741 67.9484 21.304C65.5968 20.734 64.0647 20.1995 63.4233 19.7719C62.7819 19.3443 62.4613 18.7743 62.4613 18.0616C62.4613 17.349 62.7107 16.7433 63.2451 16.3157ZM84.9691 36.2334V9.79526H79.6245V36.2334H84.9691ZM95.6225 30.4968C94.7317 29.4992 94.3042 28.2164 94.3042 26.6487C94.3042 25.0809 94.7317 23.7982 95.6225 22.8005C96.5133 21.8029 97.6535 21.304 99.0431 21.304C100.433 21.304 101.573 21.8029 102.464 22.8005C103.354 23.7982 103.818 25.0809 103.818 26.6487C103.818 28.2164 103.354 29.4992 102.464 30.4968C101.573 31.4945 100.433 31.9577 99.0431 31.9577C97.6535 31.9577 96.5133 31.4945 95.6225 30.4968ZM106.312 33.668C108.236 31.7795 109.198 29.4279 109.198 26.6487C109.198 23.8695 108.236 21.5535 106.312 19.6294C104.388 17.7053 101.965 16.7433 99.0431 16.7433C96.1213 16.7433 93.7341 17.7053 91.81 19.6294C89.8859 21.5535 88.9239 23.8695 88.9239 26.6487C88.9239 29.4279 89.8859 31.7795 91.81 33.668C93.7341 35.592 96.1213 36.5184 99.0431 36.5184C101.965 36.5184 104.388 35.592 106.312 33.668ZM130.271 19.5581C128.525 17.7053 126.529 16.7433 124.32 16.7433C122.075 16.7433 120.151 17.5628 118.512 19.2018V17.064H113.168V43.1458H118.512V33.7036C119.938 35.592 121.79 36.5184 124.142 36.5184C126.494 36.5184 128.525 35.592 130.271 33.668C132.016 31.7795 132.907 29.4279 132.907 26.5774C132.907 23.7626 132.016 21.4109 130.271 19.5581ZM119.724 30.4968C118.869 29.4992 118.441 28.2521 118.441 26.6843C118.441 25.1166 118.869 23.8338 119.724 22.8005C120.579 21.7672 121.648 21.2328 122.931 21.2328C124.178 21.2328 125.247 21.7672 126.173 22.8005C127.064 23.8695 127.527 25.1522 127.527 26.6843C127.527 28.2521 127.064 29.4992 126.137 30.4968C125.211 31.4945 124.106 31.9577 122.895 31.9577C121.648 31.9577 120.579 31.4945 119.724 30.4968ZM153.502 33.4542L150.509 30.2118C149.298 31.4945 147.73 32.1002 145.877 32.1002C144.702 32.1002 143.668 31.7795 142.742 31.1025C141.815 30.4612 141.245 29.606 141.103 28.5371H155.07V25.6866C155.07 22.9074 154.144 20.734 152.291 19.1306C150.438 17.5628 148.229 16.7433 145.592 16.7433C142.956 16.7433 140.64 17.6341 138.716 19.4156C136.792 21.1972 135.829 23.6201 135.829 26.6131C135.829 29.6417 136.756 32.0646 138.68 33.8461C140.568 35.6277 142.956 36.5184 145.877 36.5184C148.799 36.5184 151.329 35.5208 153.502 33.4542ZM148.372 22.0879C149.084 22.7293 149.512 23.5844 149.654 24.7246H141.245C141.388 23.6557 141.887 22.7649 142.778 22.1236C143.633 21.4822 144.595 21.1615 145.664 21.1615C146.733 21.1615 147.623 21.4822 148.372 22.0879Z" fill="#594AF0"/>
</g>
<defs>
<clipPath id="clip0">
<rect width="166.154" height="48" fill="white" transform="translate(0.922852)"/>
</clipPath>
<clipPath id="clip1">
<rect width="47.5079" height="47.5079" fill="white" transform="translate(0.922852)"/>
</clipPath>
<clipPath id="clip2">
<rect width="158.36" height="47.5079" fill="white" transform="translate(0.922852)"/>
</clipPath>
<clipPath id="clip3">
<rect width="156.38" height="47.5079" fill="white" transform="translate(0.922852)"/>
</clipPath>
</defs>
</svg>
