<svg width="134" height="134" viewBox="0 0 134 134" fill="none" xmlns="http://www.w3.org/2000/svg">
<circle cx="74" cy="74" r="60" fill="#F0EFFF"/>
<path d="M5.3314 75.6638C2.79047 71.2628 3.59506 65.6941 7.27782 62.1923L43.4325 27.8141C48.5911 22.909 56.9795 24.121 60.5387 30.2857L88.5548 78.811C91.5924 84.0722 89.7897 90.7997 84.5285 93.8373L42.5263 118.087C37.2651 121.125 30.5376 119.322 27.5 114.061L5.3314 75.6638Z" fill="#6E66FA"/>
<path d="M47.9616 29.5013C52.9321 38.1106 49.9824 49.1192 41.3731 54.0898C32.7639 59.0603 21.7552 56.1106 16.7847 47.5013C11.8141 38.892 14.7639 27.8834 23.3731 22.9128C31.9824 17.9423 42.991 20.892 47.9616 29.5013Z" fill="#E1DFFF"/>
<circle cx="32.3728" cy="38.5014" r="12" transform="rotate(-30 32.3728 38.5014)" fill="#B3AEF9"/>
<circle cx="32.3731" cy="38.5016" r="10" transform="rotate(-30 32.3731 38.5016)" fill="#E1DFFF"/>
<rect x="1" y="68.1616" width="84" height="64" rx="11" transform="rotate(-30 1 68.1616)" fill="#6E66FA"/>
<path d="M95.3442 57.5706C96.4488 59.4837 95.7933 61.9301 93.8801 63.0347L75.6936 73.5347C70.9107 76.2961 64.7948 74.6573 62.0333 69.8744C59.2719 65.0915 60.9107 58.9756 65.6936 56.2142L83.8801 45.7142C85.7933 44.6096 88.2397 45.2651 89.3442 47.1783L95.3442 57.5706Z" fill="#594AF0"/>
<ellipse cx="70.6936" cy="64.8745" rx="4" ry="4" transform="rotate(150 70.6936 64.8745)" fill="#B3AEF9"/>
<circle cx="118" cy="116" r="16" fill="#B3AEF9"/>
<path d="M110.929 115.414L116.586 121.071L125.071 112.586" stroke="white" stroke-width="2" stroke-linecap="round" stroke-linejoin="round"/>
</svg>
