<svg width="49" height="48" viewBox="0 0 49 48" fill="none" xmlns="http://www.w3.org/2000/svg">
<path opacity="0.1" d="M24.5 44C30.0228 44 35.0228 41.7614 38.6421 38.1421C42.2614 34.5228 44.5 29.5228 44.5 24C44.5 18.4772 42.2614 13.4772 38.6421 9.85786C35.0228 6.23858 30.0228 4 24.5 4C18.9772 4 13.9772 6.23858 10.3579 9.85786C6.73858 13.4772 4.5 18.4772 4.5 24C4.5 29.5228 6.73858 34.5228 10.3579 38.1421C13.9772 41.7614 18.9772 44 24.5 44Z" fill="#F0665B"/>
<path d="M26.75 31.5C26.75 32.7426 25.7426 33.75 24.5 33.75C23.2574 33.75 22.25 32.7426 22.25 31.5C22.25 30.2574 23.2574 29.25 24.5 29.25C25.7426 29.25 26.75 30.2574 26.75 31.5Z" fill="#F0665B" stroke="#F0665B" stroke-width="0.5"/>
<path d="M24.5 15V25V15Z" fill="#F0665B"/>
<path d="M24.5 15V25" stroke="#F0665B" stroke-width="4" stroke-linecap="round" stroke-linejoin="round"/>
</svg>
