<svg width="28" height="28" viewBox="0 0 28 28" fill="none" xmlns="http://www.w3.org/2000/svg">
<path fill-rule="evenodd" clip-rule="evenodd" d="M9.25 14C9.25 14.9665 8.4665 15.75 7.5 15.75C6.5335 15.75 5.75 14.9665 5.75 14C5.75 13.0335 6.5335 12.25 7.5 12.25C8.4665 12.25 9.25 13.0335 9.25 14ZM15.75 14C15.75 14.9665 14.9665 15.75 14 15.75C13.0335 15.75 12.25 14.9665 12.25 14C12.25 13.0335 13.0335 12.25 14 12.25C14.9665 12.25 15.75 13.0335 15.75 14ZM20.5 15.75C21.4665 15.75 22.25 14.9665 22.25 14C22.25 13.0335 21.4665 12.25 20.5 12.25C19.5335 12.25 18.75 13.0335 18.75 14C18.75 14.9665 19.5335 15.75 20.5 15.75Z" fill="#292C33"/>
</svg>
