<svg width="90" height="90" viewBox="0 0 90 90" fill="none" xmlns="http://www.w3.org/2000/svg">
<rect width="90" height="90" rx="27.3913" fill="#594AF0"/>
<rect x="30.9121" y="30.5217" width="9.39131" height="9.39131" fill="white"/>
<path d="M49.6931 30.5222L40.3018 39.9135V30.5222L49.6931 21.1309V30.5222Z" fill="white" fill-opacity="0.4"/>
<path d="M49.6931 39.913L40.3018 49.3043V39.913L49.6931 30.5217V39.913Z" fill="white" fill-opacity="0.75"/>
<rect x="49.6978" y="30.5217" width="9.39131" height="9.39131" fill="white"/>
<path d="M40.3034 21.1306L49.6947 11.7393V21.1306L40.3034 30.5219H30.9121L40.3034 21.1306Z" fill="white" fill-opacity="0.75"/>
<path d="M49.6917 49.3052L40.3004 58.6965L40.3004 49.3052L49.6917 39.9139L59.083 39.9139L49.6917 49.3052Z" fill="white" fill-opacity="0.4"/>
<path d="M37.3952 67L34.2589 76.5869H31.8758L29.7667 70.0952L27.5891 76.5869H25.2198L22.0698 67H24.3706L26.5345 73.7382L28.7943 67H30.8487L33.04 73.793L35.2724 67H37.3952ZM40.9067 69.1091C42.048 69.1091 42.9246 69.383 43.5363 69.9308C44.148 70.4695 44.4539 71.2867 44.4539 72.3823V76.5869H42.4543V75.6693C42.0526 76.3541 41.3039 76.6965 40.2083 76.6965C39.6422 76.6965 39.1491 76.6006 38.7291 76.4089C38.3183 76.2171 38.0033 75.9523 37.7841 75.6145C37.565 75.2767 37.4554 74.8932 37.4554 74.4641C37.4554 73.7793 37.7111 73.2406 38.2224 72.848C38.7428 72.4554 39.5417 72.2591 40.6191 72.2591H42.3174C42.3174 71.7934 42.1759 71.4373 41.8928 71.1908C41.6098 70.9352 41.1852 70.8073 40.6191 70.8073C40.2265 70.8073 39.8385 70.8713 39.455 70.9991C39.0806 71.1178 38.7611 71.2821 38.4963 71.4921L37.7293 69.9993C38.1311 69.7163 38.6104 69.4971 39.1674 69.3419C39.7335 69.1867 40.3133 69.1091 40.9067 69.1091ZM40.7424 75.2584C41.1076 75.2584 41.4317 75.1763 41.7148 75.0119C41.9978 74.8384 42.1987 74.5873 42.3174 74.2587V73.5054H40.8519C39.9754 73.5054 39.5372 73.793 39.5372 74.3682C39.5372 74.6421 39.6422 74.8613 39.8522 75.0256C40.0713 75.1808 40.368 75.2584 40.7424 75.2584ZM46.3876 66.4247H48.5241V76.5869H46.3876V66.4247ZM50.507 66.4247H52.6435V76.5869H50.507V66.4247ZM61.844 72.9302C61.844 72.9576 61.8303 73.1493 61.8029 73.5054H56.2287C56.3292 73.9619 56.5666 74.3226 56.9409 74.5873C57.3153 74.8521 57.7809 74.9845 58.3379 74.9845C58.7213 74.9845 59.0592 74.9297 59.3513 74.8202C59.6527 74.7015 59.9311 74.5189 60.1868 74.2723L61.3235 75.505C60.6296 76.2993 59.6161 76.6965 58.2831 76.6965C57.4522 76.6965 56.7172 76.5367 56.0781 76.2171C55.439 75.8884 54.9459 75.4365 54.599 74.8613C54.252 74.286 54.0785 73.6332 54.0785 72.9028C54.0785 72.1815 54.2474 71.5332 54.5853 70.958C54.9322 70.3737 55.4024 69.9217 55.9959 69.6021C56.5985 69.2734 57.2696 69.1091 58.0092 69.1091C58.7305 69.1091 59.3833 69.2643 59.9677 69.5747C60.552 69.8852 61.0085 70.3326 61.3372 70.9169C61.675 71.4921 61.844 72.1632 61.844 72.9302ZM58.0229 70.7252C57.539 70.7252 57.1327 70.8621 56.804 71.136C56.4753 71.41 56.2744 71.7843 56.2013 72.2591H59.8307C59.7577 71.7934 59.5568 71.4237 59.2281 71.1497C58.8994 70.8667 58.4977 70.7252 58.0229 70.7252ZM68.0188 76.2308C67.8088 76.386 67.5486 76.5047 67.2381 76.5869C66.9368 76.66 66.6172 76.6965 66.2794 76.6965C65.4029 76.6965 64.7227 76.4728 64.2388 76.0254C63.764 75.578 63.5266 74.9206 63.5266 74.0532V71.0265H62.3899V69.383H63.5266V67.5889H65.6631V69.383H67.4983V71.0265H65.6631V74.0258C65.6631 74.3363 65.7407 74.5782 65.8959 74.7517C66.0603 74.916 66.2886 74.9982 66.5807 74.9982C66.9186 74.9982 67.2062 74.9069 67.4436 74.7243L68.0188 76.2308Z" fill="white"/>
</svg>
